<svg width="13" height="22" viewBox="0 0 13 22" fill="none" xmlns="http://www.w3.org/2000/svg">
<path d="M0 15.1719C0.221725 17.6725 2.26942 19.4459 5.3866 19.6756V21.5H6.95172V19.6756C10.3558 19.4077 12.4688 17.5194 12.4688 14.7254C12.4688 12.3396 11.0471 10.9617 8.03426 10.1835L6.95172 9.90279V4.19988C8.63422 4.36574 9.76893 5.27157 10.0559 6.62394H12.2601C12.0123 4.22539 9.95152 2.50304 6.95172 2.31166V0.5H5.3866V2.34994C2.4781 2.69441 0.482577 4.55711 0.482577 7.08323C0.482577 9.26488 1.93031 10.8086 4.47362 11.4593L5.3866 11.7017V17.7491C3.66498 17.4939 2.4781 16.5498 2.19116 15.1719H0ZM5.08662 9.41798C3.52151 9.02248 2.68678 8.18044 2.68678 6.99392C2.68678 5.57776 3.74323 4.53159 5.3866 4.25091V9.49453L5.08662 9.41798ZM7.47342 12.2248C9.40373 12.7096 10.2515 13.5134 10.2515 14.8785C10.2515 16.5243 9.01245 17.6215 6.95172 17.7874V12.0972L7.47342 12.2248Z" fill="white"/>
</svg>
